# xmcd
#
# Track frame offsets:
#	180
#	16589
#	35451
#	52331
#	72845
#	97489
#	119071
#	143094
#	156034
#	169866
#	181671
#
# Disc length: 2516 seconds
#
# Revision: 0
# Processed by: cddbd v1.5.1PL2 Copyright (c) Steve Scherf et al.
# Submitted via: dBpowerAMP V4.0
#
DISCID=9809d20b
DTITLE=Boris Vian - Sue et les Salamandres
DYEAR=1900
DGENRE=
TTITLE0=Chaperon Rock
TTITLE1=La complainte du progrès
TTITLE2=C'est le Be Bop
TTITLE3=Eh, mama !
TTITLE4=Con-plainte des con-tribuables
TTITLE5=Dis-moi que tu m'aimes
TTITLE6=Poker blues
TTITLE7=Les joyeux bouchers
TTITLE8=Bourrée (de complexes)
TTITLE9=Rock hoquet
TTITLE10=A la manière de Brassens
EXTD=
EXTT0=
EXTT1=
EXTT2=
EXTT3=
EXTT4=
EXTT5=
EXTT6=
EXTT7=
EXTT8=
EXTT9=
EXTT10=
PLAYORDER=
